<?xml version="1.0" standalone="no"?>
<!DOCTYPE svg PUBLIC "-//W3C//DTD SVG 20010904//EN"
 "http://www.w3.org/TR/2001/REC-SVG-20010904/DTD/svg10.dtd">
<svg version="1.0" xmlns="http://www.w3.org/2000/svg"
 width="500.000000pt" height="500.000000pt" viewBox="0 0 500.000000 500.000000"
 preserveAspectRatio="xMidYMid meet">

<g transform="translate(0.000000,500.000000) scale(0.100000,-0.100000)"
fill="#000000" stroke="none">
<path d="M1451 3491 c-35 -22 -67 -43 -73 -49 -9 -9 29 -36 118 -87 l32 -18
81 47 c45 27 81 50 81 52 0 6 -154 94 -165 94 -5 -1 -39 -18 -74 -39z"/>
<path d="M1300 3357 c0 -74 1 -75 141 -151 l84 -45 92 52 c143 81 135 72 131
144 l-3 61 -100 -59 c-55 -32 -106 -59 -114 -59 -8 0 -60 27 -117 60 -56 33
-105 60 -108 60 -3 0 -6 -28 -6 -63z"/>
<path d="M887 3147 c-9 -18 -67 -126 -128 -242 -198 -374 -200 -379 -197 -433
3 -46 5 -48 68 -90 101 -66 516 -302 532 -302 26 0 57 30 91 92 31 57 94 177
241 460 28 54 54 98 59 98 4 0 76 -52 160 -115 83 -63 158 -115 165 -115 47 0
102 82 102 153 0 34 -6 48 -27 69 -58 52 -362 278 -376 278 -24 0 -63 -37 -91
-85 -15 -25 -32 -45 -38 -45 -6 0 -33 14 -60 30 -26 17 -51 30 -55 30 -3 0
-20 10 -37 23 -17 13 -40 27 -51 31 -16 6 -125 67 -205 116 -8 5 -33 20 -56
34 -22 14 -47 26 -55 28 -8 2 -16 6 -19 10 -3 4 -13 -7 -23 -25z"/>
<path d="M2140 2879 l0 -201 113 4 c104 3 117 5 155 31 55 36 85 95 85 167 0
62 -11 90 -56 138 -41 42 -108 62 -214 62 l-83 0 0 -201z m171 111 c55 -15 84
-53 84 -109 0 -28 -7 -58 -17 -74 -21 -30 -84 -53 -122 -43 l-26 6 0 115 c0
129 -1 128 81 105z"/>
<path d="M2781 3058 c-64 -31 -101 -94 -101 -170 0 -73 17 -112 66 -160 94
-90 257 -61 314 56 25 54 29 140 7 183 -53 100 -183 142 -286 91z m171 -95
c91 -87 -4 -243 -116 -191 -36 16 -70 89 -61 130 11 50 24 68 58 84 42 18 85
10 119 -23z"/>
<path d="M3372 3059 c-26 -13 -55 -39 -70 -62 -23 -35 -27 -51 -27 -118 0 -66
3 -81 25 -112 44 -62 77 -81 146 -85 34 -2 77 1 96 7 39 13 92 64 103 99 6 21
4 22 -43 22 -36 0 -54 -5 -66 -19 -40 -44 -118 -35 -149 18 -31 54 -14 158 28
175 37 14 87 6 117 -19 22 -18 41 -25 73 -25 24 0 46 4 49 9 11 17 -55 93 -97
112 -57 25 -131 24 -185 -2z"/>
<path d="M3860 2880 l0 -200 121 0 120 0 -3 38 -3 37 -67 3 -68 3 0 39 0 40
59 0 c33 0 62 3 64 8 3 4 2 22 0 40 -5 32 -5 32 -64 32 l-59 0 0 40 0 40 70 0
70 0 0 40 0 40 -120 0 -120 0 0 -200z"/>
<path d="M1633 2527 l-53 -32 0 -77 c0 -43 3 -78 6 -78 3 0 30 15 60 32 l54
33 0 77 c0 43 -3 78 -7 77 -5 0 -32 -15 -60 -32z"/>
<path d="M1462 2427 l-52 -32 0 -78 0 -77 38 19 c67 35 70 41 77 118 3 39 2
74 -2 76 -5 3 -32 -9 -61 -26z"/>
<path d="M1633 2297 l-53 -31 0 -78 0 -78 43 21 c73 37 77 44 77 126 0 40 -3
73 -7 72 -5 0 -32 -15 -60 -32z"/>
<path d="M2140 2080 l0 -200 110 0 110 0 0 35 c0 34 -1 35 -42 35 -93 0 -88
-9 -88 171 l0 159 -45 0 -45 0 0 -200z"/>
<path d="M2659 2253 c-33 -86 -129 -357 -129 -365 0 -4 22 -8 49 -8 46 0 49 2
57 33 l10 32 76 3 76 3 12 -36 c11 -34 13 -35 61 -35 27 0 49 4 49 8 0 8 -61
177 -116 325 l-26 67 -54 0 c-50 0 -55 -2 -65 -27z m90 -158 c29 -77 28 -79
-21 -71 -23 4 -44 9 -46 11 -6 6 31 115 39 115 4 0 17 -25 28 -55z"/>
<path d="M3110 2080 l0 -200 50 0 50 0 0 76 c0 94 10 93 66 -2 l40 -69 52 -3
c29 -2 52 -1 52 2 0 2 -18 36 -41 75 l-40 70 40 39 c36 34 41 44 41 83 0 92
-61 128 -212 129 l-98 0 0 -200z m191 110 c22 -12 26 -59 7 -78 -7 -7 -31 -12
-55 -12 l-43 0 0 50 0 50 36 0 c19 0 44 -5 55 -10z"/>
<path d="M1463 2198 l-53 -30 0 -80 0 -80 48 27 c26 15 51 31 55 35 4 4 7 41
5 82 l-3 75 -52 -29z"/>
</g>
</svg>
