<?xml version="1.0" standalone="no"?>
<!DOCTYPE svg PUBLIC "-//W3C//DTD SVG 20010904//EN"
 "http://www.w3.org/TR/2001/REC-SVG-20010904/DTD/svg10.dtd">
<svg version="1.0" xmlns="http://www.w3.org/2000/svg"
 width="256.000000pt" height="256.000000pt" viewBox="0 0 256.000000 256.000000"
 preserveAspectRatio="xMidYMid meet">

<g transform="translate(0.000000,256.000000) scale(0.100000,-0.100000)"
fill="#000000" stroke="none">
<path d="M1646 2267 c-21 -16 -24 -60 -6 -82 15 -18 61 -20 78 -3 17 17 15 64
-4 82 -19 19 -44 20 -68 3z"/>
<path d="M1037 1958 c-127 -123 -314 -305 -416 -405 l-186 -183 25 -19 24 -19
36 31 c19 17 196 184 393 371 196 188 361 342 365 344 4 1 91 -79 194 -178
188 -181 226 -206 242 -164 3 9 6 65 6 125 l0 109 55 0 55 0 0 -205 0 -205
165 -161 c91 -89 165 -165 165 -170 0 -4 -7 -15 -16 -23 -12 -12 -37 -16 -105
-16 l-90 0 -324 320 c-224 222 -330 320 -345 320 -15 0 -118 -96 -338 -315
l-317 -314 78 -78 77 -78 0 61 c0 63 -8 79 -43 85 -14 3 54 75 262 277 l281
274 272 -267 c150 -146 274 -270 276 -275 2 -5 -7 -10 -20 -12 l-23 -3 -3
-432 -2 -433 -111 0 -112 0 44 -40 44 -39 87 -1 c66 0 90 4 102 16 14 14 16
67 16 440 l0 424 156 0 156 0 34 34 c28 28 34 42 34 78 1 43 -1 44 -160 199
l-160 156 0 219 c0 158 -3 223 -12 232 -17 17 -234 17 -245 0 -4 -7 -10 -52
-13 -100 l-5 -87 -172 165 c-95 90 -177 164 -183 164 -7 0 -116 -100 -243
-222z"/>
<path d="M752 2104 c-24 -17 -30 -62 -10 -82 7 -7 24 -12 38 -12 33 0 50 17
50 51 0 24 -30 59 -50 59 -3 0 -16 -7 -28 -16z"/>
<path d="M388 1704 c-21 -45 21 -87 66 -66 28 13 36 58 14 80 -22 22 -67 14
-80 -14z"/>
<path d="M2068 1689 c-24 -14 -23 -62 2 -84 42 -38 102 14 76 66 -13 26 -50
35 -78 18z"/>
<path d="M1173 1184 c-97 -36 -178 -146 -190 -259 l-6 -56 59 -60 c62 -62 88
-78 54 -31 -11 15 -23 42 -26 60 l-6 32 91 0 91 0 0 -96 c0 -94 0 -95 -22 -89
-13 4 -39 16 -58 27 -31 17 -27 12 25 -42 l60 -62 67 5 c80 5 137 35 196 102
125 142 76 369 -100 461 -46 24 -179 29 -235 8z m67 -149 l0 -95 -90 0 c-102
0 -104 3 -70 70 28 54 84 97 158 119 1 1 2 -42 2 -94z m174 52 c33 -23 86
-103 86 -129 0 -16 -10 -18 -90 -18 l-90 0 0 94 0 95 33 -11 c17 -6 45 -20 61
-31z m86 -232 c0 -25 -36 -88 -67 -117 -24 -23 -89 -58 -108 -58 -3 0 -5 43
-5 95 l0 95 90 0 c74 0 90 -3 90 -15z"/>
<path d="M2026 877 c-20 -30 -10 -66 22 -78 52 -20 96 46 56 85 -23 23 -61 20
-78 -7z"/>
<path d="M2067 562 c-23 -25 -21 -55 3 -77 32 -29 74 -10 78 35 5 54 -46 81
-81 42z"/>
</g>
</svg>
