<svg width="581" height="195" viewBox="0 0 581 195" fill="none" xmlns="http://www.w3.org/2000/svg">
<g clip-path="url(#clip0_343_297)">
<path d="M197.549 10.4629H69.2002L138.112 162.373H266.461L197.549 10.4629Z" fill="#212DDE"/>
<path opacity="0.3" d="M197.549 10.4629H69.2002L138.112 162.373H266.461L197.549 10.4629Z" fill="black"/>
<path opacity="0.6" d="M194.925 10.4629H69.2002L138.112 162.373H263.837L194.925 10.4629Z" fill="black"/>
<path d="M69.1549 10.4629H197.504L128.585 162.373H0.243164L69.1549 10.4629Z" fill="#212DDE"/>
<path opacity="0.3" d="M69.1549 10.4629H197.504L128.585 162.373H0.243164L69.1549 10.4629Z" fill="black"/>
<path opacity="0.6" d="M69.1549 10.4629H194.88L125.968 162.373H0.243164L69.1549 10.4629Z" fill="black"/>
<g opacity="0.3">
<path d="M189.987 21.2451L189.092 23.2103H63.3672L64.2622 21.2451H189.987Z" fill="black"/>
<path d="M183.456 35.6309L182.569 37.596H56.8438L57.7312 35.6309H183.456Z" fill="black"/>
<path d="M176.934 50.0166L176.039 51.9818H50.3135L51.2085 50.0166H176.934Z" fill="black"/>
<path d="M170.401 64.4033L169.514 66.3685H43.7891L44.6841 64.4033H170.401Z" fill="black"/>
<path d="M163.879 78.7969L162.992 80.7621H37.2666L38.1541 78.7969H163.879Z" fill="black"/>
<path d="M157.355 93.1826L156.46 95.1478H30.7422L31.6297 93.1826H157.355Z" fill="black"/>
<path d="M150.832 107.568L149.929 109.534H24.2041L25.1067 107.568H150.832Z" fill="black"/>
<path d="M144.301 121.955L143.406 123.92H17.6807L18.5757 121.955H144.301Z" fill="black"/>
<path d="M137.771 136.341L136.883 138.306H11.1582L12.0457 136.341H137.771Z" fill="black"/>
<path d="M131.247 150.727L130.352 152.692H4.62695L5.52201 150.727H131.247Z" fill="black"/>
</g>
<path opacity="0.3" d="M130.8 151.705L131.247 150.727H5.52224L4.96094 151.963L130.8 151.705Z" fill="#212DDE"/>
<path opacity="0.3" d="M137.331 137.32L137.778 136.341H12.0535L11.4922 137.578L137.331 137.32Z" fill="#212DDE"/>
<path opacity="0.3" d="M143.861 122.934L144.301 121.955H18.576L18.0146 123.192L143.861 122.934Z" fill="#212DDE"/>
<path opacity="0.3" d="M150.385 108.548L150.832 107.569H25.1071L24.5459 108.806L150.385 108.548Z" fill="#212DDE"/>
<path opacity="0.3" d="M156.916 94.1624L157.356 93.1836H31.6385L31.0771 94.4204L156.916 94.1624Z" fill="#212DDE"/>
<path opacity="0.3" d="M163.439 79.7766L163.887 78.7979H38.1619L37.6006 80.0346L163.439 79.7766Z" fill="#212DDE"/>
<path opacity="0.3" d="M169.971 65.3899L170.419 64.4111H44.6931L44.1318 65.6479L169.971 65.3899Z" fill="#212DDE"/>
<path opacity="0.3" d="M176.501 51.0032L176.941 50.0244H51.2232L50.6543 51.2612L176.501 51.0032Z" fill="#212DDE"/>
<path opacity="0.3" d="M183.025 36.6175L183.472 35.6387H57.7469L57.1855 36.8754L183.025 36.6175Z" fill="#212DDE"/>
<path opacity="0.3" d="M189.555 22.2317L190.002 21.2529H64.2771L63.7158 22.4897L189.555 22.2317Z" fill="#212DDE"/>
<path d="M87.3066 56.983L103.562 21.2456V5.71387H87.3066V56.983Z" fill="#212DDE"/>
<path opacity="0.4" d="M87.3066 56.983L103.562 21.2456V5.71387H87.3066V56.983Z" fill="black"/>
<path d="M73.1064 56.9829H87.3063V5.71387H73.1064V56.9829Z" fill="#212DDE"/>
<path opacity="0.6" d="M73.1064 56.9829H87.3063V5.71387H73.1064V56.9829Z" fill="black"/>
<path d="M87.3143 0.121094H70.6797V5.70553H87.3143V0.121094Z" fill="#212DDE"/>
<path opacity="0.4" d="M87.3143 0.121094H70.6797V5.70553H87.3143V0.121094Z" fill="black"/>
<path d="M105.139 0.121094H87.3135V5.70553H105.139V0.121094Z" fill="#212DDE"/>
<path opacity="0.3" d="M105.139 0.121094H87.3135V5.70553H105.139V0.121094Z" fill="black"/>
<path d="M67.2807 128.905H39.8525L57.8599 89.6846H85.2956L67.2807 128.905Z" fill="#263238"/>
<path d="M68.6013 92.8945L61.7518 107.812H52.915L59.7645 92.8945H68.6013Z" fill="#455A64"/>
<path d="M80.4414 92.8945L73.5919 107.812H64.7627L71.6122 92.8945H80.4414Z" fill="#455A64"/>
<path d="M60.4316 110.672L53.5821 125.589H44.7529L51.6024 110.672H60.4316Z" fill="#455A64"/>
<path d="M72.2799 110.672L65.4305 125.589H56.5938L63.4432 110.672H72.2799Z" fill="#455A64"/>
<path opacity="0.2" d="M62.1307 92.8948L57.754 97.2728L59.7641 92.8948H62.1307ZM45.2687 124.436L44.7529 125.567H46.4975L59.6048 112.448L60.4316 110.65H59.0511L45.2687 124.436ZM76.8233 92.8721L67.1824 102.523L65.1799 106.879L79.1747 92.8721H76.8233ZM48.3256 117.79L47.8629 118.806L56.0246 110.642H55.4784L48.3256 117.79ZM58.869 107.789L64.1787 102.478L64.649 101.461L58.3229 107.789H58.869ZM73.2279 92.8721L70.2317 95.9071L69.7614 96.9238L73.7816 92.9024L73.2279 92.8721Z" fill="white"/>
<path d="M116.76 128.905H89.3242L107.339 89.6846H134.767L116.76 128.905Z" fill="#263238"/>
<path d="M118.072 92.8945L111.223 107.812H102.386L109.235 92.8945H118.072Z" fill="#455A64"/>
<path d="M129.921 92.8945L123.071 107.812H114.234L121.084 92.8945H129.921Z" fill="#455A64"/>
<path d="M109.911 110.672L103.061 125.589H94.2246L101.074 110.672H109.911Z" fill="#455A64"/>
<path d="M121.751 110.672L114.901 125.589H106.072L112.922 110.672H121.751Z" fill="#455A64"/>
<path opacity="0.2" d="M121.758 110.672L118.542 117.66L110.623 125.589H106.072L106.193 125.309L120.833 110.672H121.758ZM100.611 111.666L101.604 110.672H101.073L100.611 111.666ZM114.674 92.8945L104.608 102.971L102.401 107.812H104.479L116.98 95.315L118.087 92.8945H114.674ZM97.0076 119.512L96.5449 120.528L106.406 110.665H105.86L97.0076 119.512ZM108.712 107.812H109.227L112.861 104.177L113.323 103.16L108.712 107.812ZM123.639 92.8945L118.952 97.5836L118.489 98.6004L124.185 92.8945H123.639Z" fill="white"/>
<path d="M128.586 162.153L193.735 18.9688L258.877 162.153V194.408H128.586V162.153Z" fill="#212DDE"/>
<path opacity="0.5" d="M128.586 162.153L193.735 18.9688L258.877 162.153V194.408H128.586V162.153Z" fill="black"/>
<g opacity="0.2">
<path d="M139.249 169.347C139.772 177.685 139.772 186.048 139.249 194.386C138.735 186.048 138.735 177.685 139.249 169.347Z" fill="black"/>
<path d="M139.249 139.004C139.773 145.838 139.773 152.702 139.249 159.536C138.733 152.702 138.733 145.838 139.249 139.004Z" fill="black"/>
<path d="M151.218 112.417C151.719 138.761 151.704 168.049 151.218 194.408C150.725 168.041 150.71 138.769 151.218 112.417Z" fill="black"/>
<path d="M163.182 181.555C163.701 185.823 163.701 190.139 163.182 194.408C162.658 190.14 162.658 185.823 163.182 181.555Z" fill="black"/>
<path d="M163.182 147.556C163.697 156.749 163.697 165.965 163.182 175.159C162.658 165.965 162.658 156.749 163.182 147.556Z" fill="black"/>
<path d="M163.181 86.127C163.689 100.9 163.689 115.779 163.181 130.552C162.665 115.772 162.665 100.9 163.181 86.127Z" fill="black"/>
<path d="M175.142 108.335C175.643 135.992 175.635 166.759 175.142 194.408C174.649 166.729 174.634 135.984 175.142 108.335Z" fill="black"/>
<path d="M175.143 59.8281C175.651 72.4007 175.651 85.0722 175.143 97.6448C174.635 85.0646 174.635 72.4007 175.143 59.8281Z" fill="black"/>
<path d="M187.105 155.834C187.613 168.665 187.613 181.579 187.105 194.409C186.597 181.579 186.597 168.665 187.105 155.834Z" fill="black"/>
<path d="M187.105 78.2432C187.606 101.355 187.598 127.046 187.105 150.166C186.612 127.039 186.597 101.355 187.105 78.2432Z" fill="black"/>
<path d="M187.105 33.5371C187.62 44.4177 187.62 55.3817 187.105 66.2622C186.589 55.3817 186.589 44.4177 187.105 33.5371Z" fill="black"/>
<path d="M199.066 30.6846C199.559 83.1294 199.559 141.963 199.066 194.408C198.565 141.963 198.573 83.1294 199.066 30.6846Z" fill="black"/>
<path d="M211.029 141.448C211.537 159.067 211.537 176.791 211.029 194.409C210.52 176.791 210.52 159.067 211.029 141.448Z" fill="black"/>
<path d="M211.028 97.6445C211.544 108.586 211.544 119.61 211.028 130.552C210.513 119.61 210.513 108.586 211.028 97.6445Z" fill="black"/>
<path d="M211.028 56.9834C211.544 68.2509 211.544 79.6098 211.028 90.8849C210.513 79.6098 210.513 68.2509 211.028 56.9834Z" fill="black"/>
<path d="M223.005 83.2734C223.506 118.98 223.498 158.678 223.005 194.408C222.512 158.671 222.505 118.988 223.005 83.2734Z" fill="black"/>
<path d="M234.952 169.818C235.468 178.007 235.468 186.22 234.952 194.41C234.436 186.22 234.436 178.007 234.952 169.818Z" fill="black"/>
<path d="M234.952 109.564C235.461 126.189 235.461 142.95 234.952 159.536C234.444 142.912 234.444 126.189 234.952 109.564Z" fill="black"/>
<path d="M246.913 153.413C247.422 167.071 247.422 180.774 246.913 194.386C246.405 180.728 246.405 167.025 246.913 153.413Z" fill="black"/>
<path d="M246.914 135.863C247.437 139.743 247.437 143.675 246.914 147.556C246.395 143.675 246.395 139.743 246.914 135.863Z" fill="black"/>
</g>
<path d="M168.953 141.447H146.326V173.801H168.953V141.447Z" fill="#263238"/>
<path d="M156.4 144.103H149.11V156.41H156.4V144.103Z" fill="#455A64"/>
<path d="M166.178 144.103H158.889V156.41H166.178V144.103Z" fill="#455A64"/>
<path d="M156.4 158.762H149.11V171.069H156.4V158.762Z" fill="#455A64"/>
<path d="M166.178 158.762H158.889V171.069H166.178V158.762Z" fill="#455A64"/>
<path opacity="0.2" d="M155.808 144.103H156.4V148.2L149.11 155.491V150.802L155.808 144.103ZM158.842 144.103V145.719L160.465 144.103H158.842ZM165.047 171.069H166.139V169.961L165.047 171.069ZM154.427 171.069L156.392 169.104V166.751L152.076 171.069H154.427ZM164.379 158.762L158.872 164.27V166.622L166.169 159.331V158.762H164.379ZM151.029 144.103L149.103 146.03V146.576L151.575 144.103H151.029Z" fill="white"/>
<path d="M171.517 173.808H143.771V176.046H171.517V173.808Z" fill="#212DDE"/>
<path opacity="0.3" d="M171.517 173.808H143.771V176.046H171.517V173.808Z" fill="black"/>
<path d="M241.795 141.447H219.168V173.801H241.795V141.447Z" fill="#263238"/>
<path d="M229.241 144.103H221.951V156.41H229.241V144.103Z" fill="#455A64"/>
<path d="M239.01 144.103H231.721V156.41H239.01V144.103Z" fill="#455A64"/>
<path d="M229.241 158.762H221.951V171.069H229.241V158.762Z" fill="#455A64"/>
<path d="M239.01 158.762H231.721V171.069H239.01V158.762Z" fill="#455A64"/>
<path d="M244.351 173.808H216.604V176.046H244.351V173.808Z" fill="#212DDE"/>
<path opacity="0.3" d="M244.351 173.808H216.604V176.046H244.351V173.808Z" fill="black"/>
<path opacity="0.2" d="M221.951 170.076L229.233 162.792V167.489L225.645 171.07H221.951V170.076ZM233.261 158.763L231.744 160.28V164.977L237.979 158.74L233.261 158.763ZM235.62 156.403H239.003V153.012L235.62 156.403ZM221.966 163.171V165.516L228.717 158.763H226.366L221.966 163.171ZM229.248 156.403V155.88L228.725 156.403H229.248ZM231.736 153.368V155.72L239.018 148.436V146.084L231.736 153.368ZM228.831 144.081L221.951 150.993V151.532L229.233 144.248V144.119L228.831 144.081ZM236.773 171.047H237.319L239.018 169.34V168.801L236.773 171.047Z" fill="white"/>
<path d="M206.03 95.2539H183.403V127.607H206.03V95.2539Z" fill="#263238"/>
<path d="M193.476 97.9023H186.187V110.209H193.476V97.9023Z" fill="#455A64"/>
<path d="M203.246 97.9023H195.957V110.209H203.246V97.9023Z" fill="#455A64"/>
<path d="M193.476 112.569H186.187V124.876H193.476V112.569Z" fill="#455A64"/>
<path d="M203.246 112.569H195.957V124.876H203.246V112.569Z" fill="#455A64"/>
<path d="M208.593 127.607H180.847V129.846H208.593V127.607Z" fill="#212DDE"/>
<path opacity="0.3" d="M208.593 127.607H180.847V129.846H208.593V127.607Z" fill="black"/>
<path opacity="0.2" d="M187.355 112.568H192.05L186.209 118.411V113.714L187.355 112.568ZM193.491 110.209V106.415L189.698 110.209H193.491ZM201.994 97.8789L195.926 103.949V108.646L203.215 101.362V97.8789H201.994ZM198.27 124.853H200.621L203.246 122.235V119.883L198.27 124.853ZM186.187 109.488L193.468 102.204V101.673L186.187 108.957V109.488ZM197.215 97.8789L195.941 99.1536V99.6999L197.754 97.8789H197.215Z" fill="white"/>
<path d="M209.291 141.447H180.134V194.408H209.291V141.447Z" fill="#263238"/>
<path d="M201.336 179.863H188.092V181.775H201.336V179.863Z" fill="#455A64"/>
<path d="M197.853 145.089H191.58V153.018H197.853V145.089Z" fill="#455A64"/>
<path d="M206.076 145.089H199.803V153.018H206.076V145.089Z" fill="#455A64"/>
<path d="M189.624 145.089H183.351V153.018H189.624V145.089Z" fill="#455A64"/>
<path d="M197.853 155.12H191.58V163.049H197.853V155.12Z" fill="#455A64"/>
<path d="M206.076 155.12H199.803V163.049H206.076V155.12Z" fill="#455A64"/>
<path d="M189.624 155.12H183.351V163.049H189.624V155.12Z" fill="#455A64"/>
<path d="M197.853 165.143H191.58V173.072H197.853V165.143Z" fill="#455A64"/>
<path d="M206.076 165.143H199.803V173.072H206.076V165.143Z" fill="#455A64"/>
<path d="M189.624 165.143H183.351V173.072H189.624V165.143Z" fill="#455A64"/>
<path opacity="0.2" d="M206.083 151.752V153.057H204.801L206.083 151.752ZM189.396 173.111L189.6 172.906V168.217L184.708 173.111H189.396ZM191.557 166.282V170.979L197.33 165.205H192.665L191.557 166.282ZM197.83 163.103V159.946L194.728 163.042L197.83 163.103ZM202.655 155.181L199.78 158.057V162.746L206.06 156.471V155.181H202.655ZM183.335 152.829V153.049H185.459L189.6 148.907V146.554L183.335 152.829ZM191.557 145.128V146.957L193.385 145.128H191.557ZM183.335 169.051V169.598L187.757 165.174H187.219L183.335 169.051ZM189.6 163.072V162.784L189.312 163.072H189.6ZM191.557 160.834V161.373L197.777 155.151H197.239L191.557 160.834ZM199.78 152.602V153.049H199.878L206.06 146.865V146.327L199.78 152.602ZM199.833 173.088H200.379L206.06 167.405V166.866L199.833 173.088Z" fill="white"/>
<path d="M196.003 83.9931C202.622 82.9142 207.114 76.6711 206.034 70.0492C204.955 63.4277 198.714 58.9351 192.095 60.0146C185.475 61.0942 180.984 67.3372 182.063 73.9587C183.142 80.5802 189.383 85.0728 196.003 83.9931Z" fill="#263238"/>
<path d="M184.632 71.9829C184.632 73.2218 184.876 74.4484 185.35 75.5928C185.825 76.7371 186.521 77.7766 187.397 78.6522C188.273 79.527 189.313 80.2213 190.458 80.694C191.603 81.1667 192.829 81.4087 194.068 81.4065C194.864 81.4171 195.655 81.3093 196.419 81.0878C197.907 80.7266 199.279 79.9959 200.409 78.9633C201.815 77.681 202.801 76.0034 203.238 74.1504C203.675 72.2976 203.542 70.3559 202.856 68.5802C202.17 66.8043 200.965 65.2771 199.396 64.1986C197.829 63.1202 195.971 62.5408 194.068 62.5365C193.268 62.5294 192.47 62.6393 191.701 62.8628C190.609 63.1308 189.579 63.6074 188.667 64.2665C187.423 65.1322 186.406 66.286 185.704 67.6296C185 68.9732 184.633 70.4667 184.632 71.9829Z" fill="#455A64"/>
<path opacity="0.2" d="M193.188 62.582L184.67 71.1029C184.796 69.7431 185.218 68.4273 185.906 67.2478C186.594 66.0682 187.531 65.0533 188.652 64.2741C189.564 63.6119 190.594 63.1303 191.686 62.8552C192.176 62.7129 192.679 62.6213 193.188 62.582ZM202.45 67.6733L189.76 80.3669C190.299 80.6476 190.866 80.8714 191.451 81.0346L203.117 69.3653C202.953 68.7802 202.729 68.2134 202.45 67.6733ZM200.455 65.0404L187.135 78.3713C187.219 78.47 187.31 78.561 187.401 78.6521L200.735 65.3135L200.455 65.0404Z" fill="white"/>
<path d="M192.757 83.0687H195.366V60.6934H192.757V83.0687Z" fill="#263238"/>
<path d="M205.249 73.1814V70.5713H182.88V73.1814H205.249Z" fill="#263238"/>
<path d="M128.592 162.374H7.66895V194.409H128.592V162.374Z" fill="#212DDE"/>
<path opacity="0.6" d="M128.592 162.374H7.66895V194.409H128.592V162.374Z" fill="black"/>
<g opacity="0.2">
<path d="M18.6142 175.159C19.13 181.565 19.13 188.003 18.6142 194.409C18.0909 188.003 18.0909 181.565 18.6142 175.159Z" fill="black"/>
<path d="M18.6142 162.374C19.1339 165.402 19.1339 168.496 18.6142 171.525C18.0908 168.497 18.0908 165.401 18.6142 162.374Z" fill="black"/>
<path d="M29.582 162.374C30.0978 172.997 30.0978 183.756 29.582 194.409C29.0586 183.786 29.0586 173.027 29.582 162.374Z" fill="black"/>
<path d="M40.5058 186.654C41.0253 189.218 41.0253 191.86 40.5058 194.424C39.9825 191.861 39.9825 189.217 40.5058 186.654Z" fill="black"/>
<path d="M40.5058 162.374C41.0255 167.325 41.0255 172.318 40.5058 177.268C39.9824 172.318 39.9824 167.325 40.5058 162.374Z" fill="black"/>
<path d="M51.4511 181.556C51.9707 185.824 51.9707 190.14 51.4511 194.409C50.9277 190.141 50.9277 185.824 51.4511 181.556Z" fill="black"/>
<path d="M51.4511 162.374C51.9707 167.008 51.9707 171.685 51.4511 176.32C50.9277 171.686 50.9277 167.008 51.4511 162.374Z" fill="black"/>
<path d="M62.3966 162.374C62.9124 172.997 62.9124 183.756 62.3966 194.409C61.8808 183.786 61.8808 173.027 62.3966 162.374Z" fill="black"/>
<path d="M73.3409 175.159C73.8568 181.565 73.8568 188.003 73.3409 194.409C72.8252 188.003 72.8252 181.565 73.3409 175.159Z" fill="black"/>
<path d="M73.3418 162.374C73.8613 165.209 73.8613 168.113 73.3418 170.948C72.8184 168.114 72.8184 165.208 73.3418 162.374Z" fill="black"/>
<path d="M84.2871 189.613C84.8051 191.17 84.8051 192.852 84.2871 194.409C83.7637 192.853 83.7637 191.169 84.2871 189.613Z" fill="black"/>
<path d="M84.2872 162.374C84.803 169.836 84.803 177.325 84.2872 184.788C83.7714 177.325 83.7714 169.836 84.2872 162.374Z" fill="black"/>
<path d="M95.2325 162.374C95.7483 172.997 95.7483 183.756 95.2325 194.409C94.7168 183.786 94.7168 173.027 95.2325 162.374Z" fill="black"/>
<path d="M106.193 178.392C106.713 183.718 106.713 189.082 106.193 194.409C105.67 189.083 105.67 183.718 106.193 178.392Z" fill="black"/>
<path d="M106.193 162.374C106.713 164.828 106.713 167.364 106.193 169.817C105.67 167.364 105.67 164.828 106.193 162.374Z" fill="black"/>
<path d="M117.123 162.374C117.639 172.997 117.639 183.756 117.123 194.409C116.607 183.786 116.607 173.027 117.123 162.374Z" fill="black"/>
</g>
<path d="M117.624 165.143H94.9971V173.808H117.624V165.143Z" fill="#263238"/>
<path d="M114.84 167.769H97.7812V171.069H114.84V167.769Z" fill="#455A64"/>
<path d="M120.188 173.808H92.4414V176.046H120.188V173.808Z" fill="#212DDE"/>
<path opacity="0.3" d="M120.188 173.808H92.4414V176.046H120.188V173.808Z" fill="black"/>
<path opacity="0.2" d="M104.744 167.769L101.437 171.069H99.0935L102.393 167.769H104.744ZM97.7812 167.769V168.292L98.3046 167.769H97.7812Z" fill="white"/>
<path d="M79.4399 165.143H56.8135V173.808H79.4399V165.143Z" fill="#263238"/>
<path d="M76.6566 167.769H59.5977V171.069H76.6566V167.769Z" fill="#455A64"/>
<path d="M82.0044 173.808H54.2578V176.046H82.0044V173.808Z" fill="#212DDE"/>
<path opacity="0.3" d="M82.0044 173.808H54.2578V176.046H82.0044V173.808Z" fill="black"/>
<path opacity="0.2" d="M68.4489 167.769L65.1494 171.069H60.4541L63.7537 167.769H68.4489Z" fill="white"/>
<path d="M41.2566 165.143H18.6299V173.808H41.2566V165.143Z" fill="#263238"/>
<path d="M38.4723 167.769H21.4131V171.069H38.4723V167.769Z" fill="#455A64"/>
<path opacity="0.2" d="M38.4721 169.134V171.069H36.5303L38.4721 169.134Z" fill="white"/>
<path d="M43.8132 173.808H16.0664V176.046H43.8132V173.808Z" fill="#212DDE"/>
<path opacity="0.3" d="M43.8132 173.808H16.0664V176.046H43.8132V173.808Z" fill="black"/>
</g>
<g filter="url(#filter0_d_343_297)">
<path d="M342.216 29.936C343.688 29.936 344.776 30.32 345.48 31.088C346.248 31.856 346.632 33.072 346.632 34.736V93.2C346.632 94.928 346.312 96.176 345.672 96.944C345.032 97.648 343.944 98 342.408 98C340.424 98 338.888 97.392 337.8 96.176C336.776 94.896 336.264 93.04 336.264 90.608V65.456H304.968V91.76C304.968 94 304.488 95.6 303.528 96.56C302.568 97.52 301.064 98 299.016 98C297.544 98 296.424 97.616 295.656 96.848C294.952 96.08 294.6 94.864 294.6 93.2V34.736C294.6 33.008 294.92 31.792 295.56 31.088C296.2 30.32 297.288 29.936 298.824 29.936C300.808 29.936 302.312 30.576 303.336 31.856C304.424 33.072 304.968 34.896 304.968 37.328V60.176H336.264V36.176C336.264 33.936 336.744 32.336 337.704 31.376C338.664 30.416 340.168 29.936 342.216 29.936ZM383.034 98C376.058 98 370.65 95.984 366.81 91.952C362.97 87.92 361.05 81.904 361.05 73.904C361.05 65.776 363.002 59.728 366.906 55.76C370.81 51.792 376.186 49.808 383.034 49.808C389.882 49.808 395.258 51.792 399.162 55.76C403.066 59.728 405.018 65.776 405.018 73.904C405.018 81.904 403.098 87.92 399.258 91.952C395.418 95.984 390.01 98 383.034 98ZM383.034 94.16C386.81 94.16 389.69 92.72 391.674 89.84C393.658 86.896 394.65 81.584 394.65 73.904C394.65 66.352 393.626 61.104 391.578 58.16C389.53 55.152 386.682 53.648 383.034 53.648C379.45 53.648 376.602 55.152 374.49 58.16C372.442 61.168 371.418 66.416 371.418 73.904C371.418 81.52 372.41 86.8 374.394 89.744C376.378 92.688 379.258 94.16 383.034 94.16ZM427.445 81.68C427.445 85.2 428.181 87.728 429.653 89.264C431.189 90.8 433.173 91.568 435.605 91.568C437.397 91.568 439.253 91.088 441.173 90.128C443.093 89.104 444.661 87.76 445.877 86.096C447.157 84.368 447.797 82.512 447.797 80.528V56.72C447.797 53.968 448.245 52.144 449.141 51.248C450.101 50.288 451.701 49.808 453.941 49.808C455.413 49.808 456.405 50.192 456.917 50.96C457.493 51.664 457.781 52.784 457.781 54.32V93.872C457.781 95.408 457.461 96.496 456.821 97.136C456.181 97.712 455.125 98 453.653 98C451.797 98 450.389 97.36 449.429 96.08C448.469 94.8 447.989 92.688 447.989 89.744V89.072H447.797C446.133 91.76 443.861 93.936 440.981 95.6C438.101 97.2 434.773 98 430.997 98C421.973 98 417.461 93.168 417.461 83.504V54.32C417.461 52.784 417.717 51.664 418.229 50.96C418.805 50.192 419.829 49.808 421.301 49.808C423.477 49.808 425.045 50.416 426.005 51.632C426.965 52.848 427.445 54.864 427.445 57.68V81.68ZM498.973 86.288C498.973 84.496 498.429 83.024 497.341 81.872C496.317 80.656 494.973 79.696 493.309 78.992C491.709 78.224 489.405 77.328 486.397 76.304C482.749 75.088 479.869 73.968 477.757 72.944C475.709 71.92 474.045 70.608 472.765 69.008C471.485 67.344 470.845 65.2 470.845 62.576C470.845 59.248 471.837 56.656 473.821 54.8C475.869 52.88 478.237 51.568 480.925 50.864C483.613 50.16 486.173 49.808 488.605 49.808C493.917 49.808 498.077 50.608 501.085 52.208C502.557 52.976 503.773 53.904 504.733 54.992C505.693 56.08 506.173 57.296 506.173 58.64C506.173 59.664 505.789 60.496 505.021 61.136C504.317 61.776 503.453 62.096 502.429 62.096C501.085 62.096 499.997 61.808 499.165 61.232C498.397 60.656 497.757 59.792 497.245 58.64C496.541 57.104 495.517 55.888 494.173 54.992C492.829 54.096 491.005 53.648 488.701 53.648C486.333 53.648 484.349 54.256 482.749 55.472C481.213 56.624 480.445 58.384 480.445 60.752C480.445 62.352 480.925 63.728 481.885 64.88C482.845 65.968 484.093 66.864 485.629 67.568C487.165 68.272 489.309 69.104 492.061 70.064C495.645 71.344 498.525 72.496 500.701 73.52C502.941 74.544 504.829 75.888 506.365 77.552C507.965 79.216 508.765 81.264 508.765 83.696C508.765 87.984 506.909 91.44 503.197 94.064C499.549 96.688 494.781 98 488.893 98C486.141 98 483.517 97.712 481.021 97.136C478.589 96.56 476.541 95.824 474.877 94.928C471.741 93.328 470.173 91.216 470.173 88.592C470.173 87.568 470.557 86.736 471.325 86.096C472.157 85.392 473.021 85.04 473.917 85.04C476.413 85.04 478.173 86.192 479.197 88.496C480.029 90.16 481.149 91.536 482.557 92.624C484.029 93.648 486.205 94.16 489.085 94.16C491.901 94.16 494.237 93.52 496.093 92.24C498.013 90.896 498.973 88.912 498.973 86.288ZM554.666 85.904C555.306 85.2 556.106 84.848 557.066 84.848C557.642 84.848 558.154 85.04 558.602 85.424C559.05 85.808 559.274 86.288 559.274 86.864C559.274 88.016 558.858 89.104 558.026 90.128C553.802 95.376 547.914 98 540.362 98C532.874 98 527.21 95.984 523.37 91.952C519.594 87.856 517.706 82.224 517.706 75.056C517.706 66.864 519.626 60.624 523.466 56.336C527.306 51.984 532.874 49.808 540.17 49.808C545.994 49.808 550.666 51.472 554.186 54.8C557.706 58.128 559.466 62.896 559.466 69.104C559.466 72.24 557.642 73.808 553.994 73.808H528.17C528.106 74.32 528.074 75.024 528.074 75.92C528.074 81.424 529.162 85.776 531.338 88.976C533.514 92.176 536.874 93.776 541.418 93.776C544.49 93.776 546.922 93.136 548.714 91.856C550.506 90.576 551.882 89.36 552.842 88.208C553.802 86.992 554.41 86.224 554.666 85.904ZM539.594 53.648C536.522 53.648 533.994 54.96 532.01 57.584C530.026 60.208 528.842 64.272 528.458 69.776H546.41C547.562 69.776 548.394 69.584 548.906 69.2C549.418 68.752 549.674 68.016 549.674 66.992C549.674 62.704 548.65 59.408 546.602 57.104C544.618 54.8 542.282 53.648 539.594 53.648Z" fill="#090D3E"/>
</g>
<g filter="url(#filter1_d_343_297)">
<path d="M294.6 115.736C294.6 114.008 294.92 112.792 295.56 112.088C296.2 111.32 297.288 110.936 298.824 110.936H316.968C324.328 110.936 330.216 112.312 334.632 115.064C339.048 117.752 341.256 122.552 341.256 129.464C341.256 132.6 340.424 135.48 338.76 138.104C337.16 140.728 335.048 142.872 332.424 144.536C329.864 146.2 327.208 147.256 324.456 147.704L340.392 173.336C340.968 174.168 341.256 175 341.256 175.832C341.256 176.792 340.84 177.56 340.008 178.136C339.176 178.712 337.96 179 336.36 179C335.08 179 333.864 178.712 332.712 178.136C331.56 177.56 330.6 176.632 329.832 175.352L313.704 148.376H304.968V172.76C304.968 175 304.488 176.6 303.528 177.56C302.568 178.52 301.064 179 299.016 179C297.544 179 296.424 178.616 295.656 177.848C294.952 177.08 294.6 175.864 294.6 174.2V115.736ZM304.968 143.288H315.24C319.208 143.288 322.728 142.136 325.8 139.832C328.872 137.464 330.408 133.816 330.408 128.888C330.408 123.64 329 120.184 326.184 118.52C323.368 116.856 319.976 116.024 316.008 116.024H304.968V143.288ZM388.448 166.904C389.088 166.2 389.888 165.848 390.848 165.848C391.424 165.848 391.936 166.04 392.384 166.424C392.832 166.808 393.056 167.288 393.056 167.864C393.056 169.016 392.64 170.104 391.808 171.128C387.584 176.376 381.696 179 374.144 179C366.656 179 360.992 176.984 357.152 172.952C353.376 168.856 351.488 163.224 351.488 156.056C351.488 147.864 353.408 141.624 357.248 137.336C361.088 132.984 366.656 130.808 373.952 130.808C379.776 130.808 384.448 132.472 387.968 135.8C391.488 139.128 393.248 143.896 393.248 150.104C393.248 153.24 391.424 154.808 387.776 154.808H361.952C361.888 155.32 361.856 156.024 361.856 156.92C361.856 162.424 362.944 166.776 365.12 169.976C367.296 173.176 370.656 174.776 375.2 174.776C378.272 174.776 380.704 174.136 382.496 172.856C384.288 171.576 385.664 170.36 386.624 169.208C387.584 167.992 388.192 167.224 388.448 166.904ZM373.376 134.648C370.304 134.648 367.776 135.96 365.792 138.584C363.808 141.208 362.624 145.272 362.24 150.776H380.192C381.344 150.776 382.176 150.584 382.688 150.2C383.2 149.752 383.456 149.016 383.456 147.992C383.456 143.704 382.432 140.408 380.384 138.104C378.4 135.8 376.064 134.648 373.376 134.648ZM404.805 134.936C404.805 133.4 405.125 132.344 405.765 131.768C406.405 131.128 407.461 130.808 408.933 130.808C410.725 130.808 412.101 131.512 413.061 132.92C414.085 134.264 414.597 136.312 414.597 139.064V139.736H414.789C416.453 137.048 418.725 134.904 421.605 133.304C424.485 131.64 427.813 130.808 431.589 130.808C440.613 130.808 445.125 135.64 445.125 145.304V174.488C445.125 176.024 444.837 177.176 444.261 177.944C443.749 178.648 442.757 179 441.285 179C439.109 179 437.541 178.392 436.581 177.176C435.621 175.96 435.141 173.944 435.141 171.128V147.128C435.141 143.608 434.373 141.08 432.837 139.544C431.365 138.008 429.413 137.24 426.981 137.24C425.189 137.24 423.333 137.752 421.413 138.776C419.493 139.736 417.893 141.08 416.613 142.808C415.397 144.472 414.789 146.296 414.789 148.28V172.184C414.789 174.936 414.309 176.76 413.349 177.656C412.453 178.552 410.885 179 408.645 179C407.173 179 406.149 178.648 405.573 177.944C405.061 177.176 404.805 176.024 404.805 174.488V134.936ZM477.869 179C472.429 179 468.621 177.688 466.445 175.064C464.333 172.376 463.277 168.632 463.277 163.832V135.512H457.517C456.749 135.512 456.141 135.32 455.693 134.936C455.245 134.552 455.021 134.008 455.021 133.304C455.021 132.792 455.181 132.408 455.501 132.152C455.885 131.832 456.557 131.48 457.517 131.096C458.797 130.52 459.885 129.944 460.781 129.368C461.677 128.792 462.637 127.96 463.661 126.872C465.005 125.464 466.253 123.672 467.405 121.496C468.045 120.408 468.557 119.672 468.941 119.288C469.389 118.904 469.965 118.712 470.669 118.712C471.757 118.712 472.461 119.096 472.781 119.864C473.101 120.632 473.261 122.008 473.261 123.992V130.808H484.877C485.581 130.808 486.125 131.064 486.509 131.576C486.957 132.024 487.181 132.568 487.181 133.208C487.181 133.848 486.957 134.392 486.509 134.84C486.125 135.288 485.581 135.512 484.877 135.512H473.261V166.04C473.261 169.048 473.805 171.256 474.893 172.664C476.045 174.072 477.421 174.776 479.021 174.776C480.941 174.776 482.413 174.296 483.437 173.336C484.461 172.376 485.453 171.032 486.413 169.304C487.053 168.088 487.629 167.192 488.141 166.616C488.717 166.04 489.421 165.752 490.253 165.752C491.021 165.752 491.629 165.976 492.077 166.424C492.525 166.808 492.749 167.352 492.749 168.056C492.749 168.568 492.589 169.208 492.269 169.976C491.949 170.68 491.629 171.256 491.309 171.704C489.709 174.136 487.725 175.96 485.357 177.176C482.989 178.392 480.493 179 477.869 179ZM529.208 169.88C527.096 173.016 524.664 175.32 521.911 176.792C519.224 178.264 516.024 179 512.312 179C507.576 179 503.96 177.848 501.464 175.544C499.032 173.176 497.816 170.008 497.816 166.04C497.816 161.176 499.608 157.176 503.192 154.04C506.84 150.84 513.112 149.24 522.008 149.24H529.016V146.552C529.016 142.2 528.248 139.128 526.712 137.336C525.24 135.544 522.808 134.648 519.416 134.648C516.216 134.648 513.4 135.992 510.968 138.68C508.92 140.92 506.968 142.04 505.112 142.04C504.024 142.04 503.192 141.752 502.616 141.176C502.04 140.536 501.752 139.736 501.752 138.776C501.752 137.56 502.2 136.536 503.096 135.704C503.992 134.872 505.304 134.104 507.032 133.4C509.08 132.568 511.384 131.928 513.944 131.48C516.568 131.032 519.032 130.808 521.336 130.808C525.944 130.808 529.528 131.448 532.088 132.728C534.712 134.008 536.536 135.896 537.56 138.392C538.584 140.888 539.096 144.152 539.096 148.184V174.488C539.096 176.024 538.84 177.176 538.328 177.944C537.816 178.648 536.824 179 535.352 179C533.24 179 531.736 178.296 530.84 176.888C529.944 175.416 529.496 173.112 529.496 169.976L529.208 169.88ZM523.544 153.272C513.048 153.272 507.799 157.08 507.799 164.696C507.799 169.944 510.584 172.568 516.152 172.568C517.88 172.568 519.736 172.152 521.72 171.32C523.768 170.424 525.496 169.144 526.904 167.48C528.376 165.752 529.112 163.704 529.112 161.336V153.272H523.544ZM564.238 172.472C564.238 175.16 563.79 176.92 562.894 177.752C561.998 178.584 560.398 179 558.094 179C556.622 179 555.598 178.648 555.022 177.944C554.51 177.176 554.254 176.024 554.254 174.488V110.552C554.254 109.016 554.51 107.896 555.022 107.192C555.598 106.424 556.622 106.04 558.094 106.04C560.27 106.04 561.838 106.648 562.798 107.864C563.758 109.08 564.238 111.096 564.238 113.912V172.472Z" fill="#090D3E"/>
</g>
<defs>
<filter id="filter0_d_343_297" x="290.6" y="29.9355" width="272.866" height="76.0645" filterUnits="userSpaceOnUse" color-interpolation-filters="sRGB">
<feFlood flood-opacity="0" result="BackgroundImageFix"/>
<feColorMatrix in="SourceAlpha" type="matrix" values="0 0 0 0 0 0 0 0 0 0 0 0 0 0 0 0 0 0 127 0" result="hardAlpha"/>
<feOffset dy="4"/>
<feGaussianBlur stdDeviation="2"/>
<feComposite in2="hardAlpha" operator="out"/>
<feColorMatrix type="matrix" values="0 0 0 0 0 0 0 0 0 0 0 0 0 0 0 0 0 0 0.25 0"/>
<feBlend mode="normal" in2="BackgroundImageFix" result="effect1_dropShadow_343_297"/>
<feBlend mode="normal" in="SourceGraphic" in2="effect1_dropShadow_343_297" result="shape"/>
</filter>
<filter id="filter1_d_343_297" x="290.6" y="106.04" width="277.638" height="80.96" filterUnits="userSpaceOnUse" color-interpolation-filters="sRGB">
<feFlood flood-opacity="0" result="BackgroundImageFix"/>
<feColorMatrix in="SourceAlpha" type="matrix" values="0 0 0 0 0 0 0 0 0 0 0 0 0 0 0 0 0 0 127 0" result="hardAlpha"/>
<feOffset dy="4"/>
<feGaussianBlur stdDeviation="2"/>
<feComposite in2="hardAlpha" operator="out"/>
<feColorMatrix type="matrix" values="0 0 0 0 0 0 0 0 0 0 0 0 0 0 0 0 0 0 0.25 0"/>
<feBlend mode="normal" in2="BackgroundImageFix" result="effect1_dropShadow_343_297"/>
<feBlend mode="normal" in="SourceGraphic" in2="effect1_dropShadow_343_297" result="shape"/>
</filter>
<clipPath id="clip0_343_297">
<rect width="267" height="195" fill="white"/>
</clipPath>
</defs>
</svg>
